G04 #@! TF.FileFunction,Legend,Bot*
%FSLAX46Y46*%
G04 Gerber Fmt 4.6, Leading zero omitted, Abs format (unit mm)*
G04 Created by KiCad (PCBNEW 4.0.7) date Tuesday, April 30, 2019 'PMt' 01:18:36 PM*
%MOMM*%
%LPD*%
G01*
G04 APERTURE LIST*
%ADD10C,0.100000*%
%ADD11C,0.150000*%
G04 APERTURE END LIST*
D10*
D11*
X124666333Y-76922381D02*
X124666333Y-77636667D01*
X124713953Y-77779524D01*
X124809191Y-77874762D01*
X124952048Y-77922381D01*
X125047286Y-77922381D01*
X123666333Y-77922381D02*
X124237762Y-77922381D01*
X123952048Y-77922381D02*
X123952048Y-76922381D01*
X124047286Y-77065238D01*
X124142524Y-77160476D01*
X124237762Y-77208095D01*
X122316762Y-70127762D02*
X122221524Y-70175381D01*
X122031048Y-70175381D01*
X121935809Y-70127762D01*
X121888190Y-70032524D01*
X121888190Y-69984905D01*
X121935809Y-69889667D01*
X122031048Y-69842048D01*
X122173905Y-69842048D01*
X122269143Y-69794429D01*
X122316762Y-69699190D01*
X122316762Y-69651571D01*
X122269143Y-69556333D01*
X122173905Y-69508714D01*
X122031048Y-69508714D01*
X121935809Y-69556333D01*
X121031047Y-70127762D02*
X121126285Y-70175381D01*
X121316762Y-70175381D01*
X121412000Y-70127762D01*
X121459619Y-70080143D01*
X121507238Y-69984905D01*
X121507238Y-69699190D01*
X121459619Y-69603952D01*
X121412000Y-69556333D01*
X121316762Y-69508714D01*
X121126285Y-69508714D01*
X121031047Y-69556333D01*
X120459619Y-70175381D02*
X120554857Y-70127762D01*
X120602476Y-70032524D01*
X120602476Y-69175381D01*
X145113333Y-62190381D02*
X145113333Y-62904667D01*
X145160953Y-63047524D01*
X145256191Y-63142762D01*
X145399048Y-63190381D01*
X145494286Y-63190381D01*
X144684762Y-62285619D02*
X144637143Y-62238000D01*
X144541905Y-62190381D01*
X144303809Y-62190381D01*
X144208571Y-62238000D01*
X144160952Y-62285619D01*
X144113333Y-62380857D01*
X144113333Y-62476095D01*
X144160952Y-62618952D01*
X144732381Y-63190381D01*
X144113333Y-63190381D01*
X145343476Y-60364714D02*
X145343476Y-61174238D01*
X145391095Y-61269476D01*
X145438714Y-61317095D01*
X145533953Y-61364714D01*
X145676810Y-61364714D01*
X145772048Y-61317095D01*
X145343476Y-60983762D02*
X145438714Y-61031381D01*
X145629191Y-61031381D01*
X145724429Y-60983762D01*
X145772048Y-60936143D01*
X145819667Y-60840905D01*
X145819667Y-60555190D01*
X145772048Y-60459952D01*
X145724429Y-60412333D01*
X145629191Y-60364714D01*
X145438714Y-60364714D01*
X145343476Y-60412333D01*
X144867286Y-60364714D02*
X144867286Y-61031381D01*
X144867286Y-60459952D02*
X144819667Y-60412333D01*
X144724429Y-60364714D01*
X144581571Y-60364714D01*
X144486333Y-60412333D01*
X144438714Y-60507571D01*
X144438714Y-61031381D01*
X143533952Y-61031381D02*
X143533952Y-60031381D01*
X143533952Y-60983762D02*
X143629190Y-61031381D01*
X143819667Y-61031381D01*
X143914905Y-60983762D01*
X143962524Y-60936143D01*
X144010143Y-60840905D01*
X144010143Y-60555190D01*
X143962524Y-60459952D01*
X143914905Y-60412333D01*
X143819667Y-60364714D01*
X143629190Y-60364714D01*
X143533952Y-60412333D01*
X136350333Y-67524381D02*
X136350333Y-68238667D01*
X136397953Y-68381524D01*
X136493191Y-68476762D01*
X136636048Y-68524381D01*
X136731286Y-68524381D01*
X135969381Y-67524381D02*
X135350333Y-67524381D01*
X135683667Y-67905333D01*
X135540809Y-67905333D01*
X135445571Y-67952952D01*
X135397952Y-68000571D01*
X135350333Y-68095810D01*
X135350333Y-68333905D01*
X135397952Y-68429143D01*
X135445571Y-68476762D01*
X135540809Y-68524381D01*
X135826524Y-68524381D01*
X135921762Y-68476762D01*
X135969381Y-68429143D01*
X135175476Y-59523381D02*
X134556428Y-59523381D01*
X134889762Y-59904333D01*
X134746904Y-59904333D01*
X134651666Y-59951952D01*
X134604047Y-59999571D01*
X134556428Y-60094810D01*
X134556428Y-60332905D01*
X134604047Y-60428143D01*
X134651666Y-60475762D01*
X134746904Y-60523381D01*
X135032619Y-60523381D01*
X135127857Y-60475762D01*
X135175476Y-60428143D01*
X134223095Y-59856714D02*
X133985000Y-60523381D01*
X133746904Y-59856714D01*
X133461190Y-59523381D02*
X132842142Y-59523381D01*
X133175476Y-59904333D01*
X133032618Y-59904333D01*
X132937380Y-59951952D01*
X132889761Y-59999571D01*
X132842142Y-60094810D01*
X132842142Y-60332905D01*
X132889761Y-60428143D01*
X132937380Y-60475762D01*
X133032618Y-60523381D01*
X133318333Y-60523381D01*
X133413571Y-60475762D01*
X133461190Y-60428143D01*
X123015333Y-62698381D02*
X123015333Y-63412667D01*
X123062953Y-63555524D01*
X123158191Y-63650762D01*
X123301048Y-63698381D01*
X123396286Y-63698381D01*
X122110571Y-63031714D02*
X122110571Y-63698381D01*
X122348667Y-62650762D02*
X122586762Y-63365048D01*
X121967714Y-63365048D01*
X126214048Y-63523762D02*
X126118810Y-63571381D01*
X125928334Y-63571381D01*
X125833095Y-63523762D01*
X125785476Y-63428524D01*
X125785476Y-63380905D01*
X125833095Y-63285667D01*
X125928334Y-63238048D01*
X126071191Y-63238048D01*
X126166429Y-63190429D01*
X126214048Y-63095190D01*
X126214048Y-63047571D01*
X126166429Y-62952333D01*
X126071191Y-62904714D01*
X125928334Y-62904714D01*
X125833095Y-62952333D01*
X124928333Y-63571381D02*
X124928333Y-62571381D01*
X124928333Y-63523762D02*
X125023571Y-63571381D01*
X125214048Y-63571381D01*
X125309286Y-63523762D01*
X125356905Y-63476143D01*
X125404524Y-63380905D01*
X125404524Y-63095190D01*
X125356905Y-62999952D01*
X125309286Y-62952333D01*
X125214048Y-62904714D01*
X125023571Y-62904714D01*
X124928333Y-62952333D01*
X124023571Y-63571381D02*
X124023571Y-63047571D01*
X124071190Y-62952333D01*
X124166428Y-62904714D01*
X124356905Y-62904714D01*
X124452143Y-62952333D01*
X124023571Y-63523762D02*
X124118809Y-63571381D01*
X124356905Y-63571381D01*
X124452143Y-63523762D01*
X124499762Y-63428524D01*
X124499762Y-63333286D01*
X124452143Y-63238048D01*
X124356905Y-63190429D01*
X124118809Y-63190429D01*
X124023571Y-63142810D01*
X134318333Y-111466381D02*
X134318333Y-112180667D01*
X134365953Y-112323524D01*
X134461191Y-112418762D01*
X134604048Y-112466381D01*
X134699286Y-112466381D01*
X133365952Y-111466381D02*
X133842143Y-111466381D01*
X133889762Y-111942571D01*
X133842143Y-111894952D01*
X133746905Y-111847333D01*
X133508809Y-111847333D01*
X133413571Y-111894952D01*
X133365952Y-111942571D01*
X133318333Y-112037810D01*
X133318333Y-112275905D01*
X133365952Y-112371143D01*
X133413571Y-112418762D01*
X133508809Y-112466381D01*
X133746905Y-112466381D01*
X133842143Y-112418762D01*
X133889762Y-112371143D01*
X139120476Y-107354714D02*
X139120476Y-108164238D01*
X139168095Y-108259476D01*
X139215714Y-108307095D01*
X139310953Y-108354714D01*
X139453810Y-108354714D01*
X139549048Y-108307095D01*
X139120476Y-107973762D02*
X139215714Y-108021381D01*
X139406191Y-108021381D01*
X139501429Y-107973762D01*
X139549048Y-107926143D01*
X139596667Y-107830905D01*
X139596667Y-107545190D01*
X139549048Y-107449952D01*
X139501429Y-107402333D01*
X139406191Y-107354714D01*
X139215714Y-107354714D01*
X139120476Y-107402333D01*
X138644286Y-107354714D02*
X138644286Y-108021381D01*
X138644286Y-107449952D02*
X138596667Y-107402333D01*
X138501429Y-107354714D01*
X138358571Y-107354714D01*
X138263333Y-107402333D01*
X138215714Y-107497571D01*
X138215714Y-108021381D01*
X137310952Y-108021381D02*
X137310952Y-107021381D01*
X137310952Y-107973762D02*
X137406190Y-108021381D01*
X137596667Y-108021381D01*
X137691905Y-107973762D01*
X137739524Y-107926143D01*
X137787143Y-107830905D01*
X137787143Y-107545190D01*
X137739524Y-107449952D01*
X137691905Y-107402333D01*
X137596667Y-107354714D01*
X137406190Y-107354714D01*
X137310952Y-107402333D01*
X159210333Y-111212381D02*
X159210333Y-111926667D01*
X159257953Y-112069524D01*
X159353191Y-112164762D01*
X159496048Y-112212381D01*
X159591286Y-112212381D01*
X158591286Y-111640952D02*
X158686524Y-111593333D01*
X158734143Y-111545714D01*
X158781762Y-111450476D01*
X158781762Y-111402857D01*
X158734143Y-111307619D01*
X158686524Y-111260000D01*
X158591286Y-111212381D01*
X158400809Y-111212381D01*
X158305571Y-111260000D01*
X158257952Y-111307619D01*
X158210333Y-111402857D01*
X158210333Y-111450476D01*
X158257952Y-111545714D01*
X158305571Y-111593333D01*
X158400809Y-111640952D01*
X158591286Y-111640952D01*
X158686524Y-111688571D01*
X158734143Y-111736190D01*
X158781762Y-111831429D01*
X158781762Y-112021905D01*
X158734143Y-112117143D01*
X158686524Y-112164762D01*
X158591286Y-112212381D01*
X158400809Y-112212381D01*
X158305571Y-112164762D01*
X158257952Y-112117143D01*
X158210333Y-112021905D01*
X158210333Y-111831429D01*
X158257952Y-111736190D01*
X158305571Y-111688571D01*
X158400809Y-111640952D01*
X157003666Y-104592381D02*
X157003666Y-104068571D01*
X157051285Y-103973333D01*
X157146523Y-103925714D01*
X157337000Y-103925714D01*
X157432238Y-103973333D01*
X157003666Y-104544762D02*
X157098904Y-104592381D01*
X157337000Y-104592381D01*
X157432238Y-104544762D01*
X157479857Y-104449524D01*
X157479857Y-104354286D01*
X157432238Y-104259048D01*
X157337000Y-104211429D01*
X157098904Y-104211429D01*
X157003666Y-104163810D01*
X156098904Y-104592381D02*
X156098904Y-103592381D01*
X156098904Y-104544762D02*
X156194142Y-104592381D01*
X156384619Y-104592381D01*
X156479857Y-104544762D01*
X156527476Y-104497143D01*
X156575095Y-104401905D01*
X156575095Y-104116190D01*
X156527476Y-104020952D01*
X156479857Y-103973333D01*
X156384619Y-103925714D01*
X156194142Y-103925714D01*
X156098904Y-103973333D01*
X155194142Y-104544762D02*
X155289380Y-104592381D01*
X155479857Y-104592381D01*
X155575095Y-104544762D01*
X155622714Y-104497143D01*
X155670333Y-104401905D01*
X155670333Y-104116190D01*
X155622714Y-104020952D01*
X155575095Y-103973333D01*
X155479857Y-103925714D01*
X155289380Y-103925714D01*
X155194142Y-103973333D01*
M02*
