G04 #@! TF.FileFunction,Copper,L1,Top,Signal*
%FSLAX46Y46*%
G04 Gerber Fmt 4.6, Leading zero omitted, Abs format (unit mm)*
G04 Created by KiCad (PCBNEW 4.0.7) date Thursday, April 25, 2019 'AMt' 09:32:33 AM*
%MOMM*%
%LPD*%
G01*
G04 APERTURE LIST*
%ADD10C,0.100000*%
%ADD11C,0.300000*%
%ADD12R,1.700000X1.700000*%
%ADD13O,1.700000X1.700000*%
G04 APERTURE END LIST*
D10*
D11*
X123030143Y-103559572D02*
X123101571Y-103345286D01*
X123101571Y-102988143D01*
X123030143Y-102845286D01*
X122958714Y-102773857D01*
X122815857Y-102702429D01*
X122673000Y-102702429D01*
X122530143Y-102773857D01*
X122458714Y-102845286D01*
X122387286Y-102988143D01*
X122315857Y-103273857D01*
X122244429Y-103416715D01*
X122173000Y-103488143D01*
X122030143Y-103559572D01*
X121887286Y-103559572D01*
X121744429Y-103488143D01*
X121673000Y-103416715D01*
X121601571Y-103273857D01*
X121601571Y-102916715D01*
X121673000Y-102702429D01*
X122101571Y-102202429D02*
X123101571Y-101845286D01*
X122101571Y-101488144D02*
X123101571Y-101845286D01*
X123458714Y-101988144D01*
X123530143Y-102059572D01*
X123601571Y-102202429D01*
X122101571Y-100916715D02*
X123101571Y-100916715D01*
X122244429Y-100916715D02*
X122173000Y-100845287D01*
X122101571Y-100702429D01*
X122101571Y-100488144D01*
X122173000Y-100345287D01*
X122315857Y-100273858D01*
X123101571Y-100273858D01*
X122101571Y-99773858D02*
X122101571Y-99202429D01*
X121601571Y-99559572D02*
X122887286Y-99559572D01*
X123030143Y-99488144D01*
X123101571Y-99345286D01*
X123101571Y-99202429D01*
X123101571Y-98702429D02*
X121601571Y-98702429D01*
X123101571Y-98059572D02*
X122315857Y-98059572D01*
X122173000Y-98131001D01*
X122101571Y-98273858D01*
X122101571Y-98488143D01*
X122173000Y-98631001D01*
X122244429Y-98702429D01*
X123030143Y-96773858D02*
X123101571Y-96916715D01*
X123101571Y-97202429D01*
X123030143Y-97345286D01*
X122887286Y-97416715D01*
X122315857Y-97416715D01*
X122173000Y-97345286D01*
X122101571Y-97202429D01*
X122101571Y-96916715D01*
X122173000Y-96773858D01*
X122315857Y-96702429D01*
X122458714Y-96702429D01*
X122601571Y-97416715D01*
X123030143Y-96131001D02*
X123101571Y-95988144D01*
X123101571Y-95702429D01*
X123030143Y-95559572D01*
X122887286Y-95488144D01*
X122815857Y-95488144D01*
X122673000Y-95559572D01*
X122601571Y-95702429D01*
X122601571Y-95916715D01*
X122530143Y-96059572D01*
X122387286Y-96131001D01*
X122315857Y-96131001D01*
X122173000Y-96059572D01*
X122101571Y-95916715D01*
X122101571Y-95702429D01*
X122173000Y-95559572D01*
X123101571Y-94845286D02*
X122101571Y-94845286D01*
X121601571Y-94845286D02*
X121673000Y-94916715D01*
X121744429Y-94845286D01*
X121673000Y-94773858D01*
X121601571Y-94845286D01*
X121744429Y-94845286D01*
X123030143Y-94202429D02*
X123101571Y-94059572D01*
X123101571Y-93773857D01*
X123030143Y-93631000D01*
X122887286Y-93559572D01*
X122815857Y-93559572D01*
X122673000Y-93631000D01*
X122601571Y-93773857D01*
X122601571Y-93988143D01*
X122530143Y-94131000D01*
X122387286Y-94202429D01*
X122315857Y-94202429D01*
X122173000Y-94131000D01*
X122101571Y-93988143D01*
X122101571Y-93773857D01*
X122173000Y-93631000D01*
X121530143Y-91845286D02*
X123458714Y-93131000D01*
X122673000Y-91416714D02*
X122673000Y-90702428D01*
X123101571Y-91559571D02*
X121601571Y-91059571D01*
X123101571Y-90559571D01*
X123030143Y-90131000D02*
X123101571Y-89916714D01*
X123101571Y-89559571D01*
X123030143Y-89416714D01*
X122958714Y-89345285D01*
X122815857Y-89273857D01*
X122673000Y-89273857D01*
X122530143Y-89345285D01*
X122458714Y-89416714D01*
X122387286Y-89559571D01*
X122315857Y-89845285D01*
X122244429Y-89988143D01*
X122173000Y-90059571D01*
X122030143Y-90131000D01*
X121887286Y-90131000D01*
X121744429Y-90059571D01*
X121673000Y-89988143D01*
X121601571Y-89845285D01*
X121601571Y-89488143D01*
X121673000Y-89273857D01*
X121601571Y-88631000D02*
X122815857Y-88631000D01*
X122958714Y-88559572D01*
X123030143Y-88488143D01*
X123101571Y-88345286D01*
X123101571Y-88059572D01*
X123030143Y-87916714D01*
X122958714Y-87845286D01*
X122815857Y-87773857D01*
X121601571Y-87773857D01*
X125223000Y-102416713D02*
X125223000Y-101702427D01*
X125651571Y-102559570D02*
X124151571Y-102059570D01*
X125651571Y-101559570D01*
X125580143Y-101130999D02*
X125651571Y-100988142D01*
X125651571Y-100702427D01*
X125580143Y-100559570D01*
X125437286Y-100488142D01*
X125365857Y-100488142D01*
X125223000Y-100559570D01*
X125151571Y-100702427D01*
X125151571Y-100916713D01*
X125080143Y-101059570D01*
X124937286Y-101130999D01*
X124865857Y-101130999D01*
X124723000Y-101059570D01*
X124651571Y-100916713D01*
X124651571Y-100702427D01*
X124723000Y-100559570D01*
X125508714Y-99845284D02*
X125580143Y-99773856D01*
X125651571Y-99845284D01*
X125580143Y-99916713D01*
X125508714Y-99845284D01*
X125651571Y-99845284D01*
X125651571Y-99130998D02*
X124151571Y-99130998D01*
X125080143Y-98988141D02*
X125651571Y-98559570D01*
X124651571Y-98559570D02*
X125223000Y-99130998D01*
X125651571Y-95988141D02*
X125651571Y-96845284D01*
X125651571Y-96416712D02*
X124151571Y-96416712D01*
X124365857Y-96559569D01*
X124508714Y-96702427D01*
X124580143Y-96845284D01*
X125651571Y-95273856D02*
X125651571Y-94988141D01*
X125580143Y-94845284D01*
X125508714Y-94773856D01*
X125294429Y-94630998D01*
X125008714Y-94559570D01*
X124437286Y-94559570D01*
X124294429Y-94630998D01*
X124223000Y-94702427D01*
X124151571Y-94845284D01*
X124151571Y-95130998D01*
X124223000Y-95273856D01*
X124294429Y-95345284D01*
X124437286Y-95416713D01*
X124794429Y-95416713D01*
X124937286Y-95345284D01*
X125008714Y-95273856D01*
X125080143Y-95130998D01*
X125080143Y-94845284D01*
X125008714Y-94702427D01*
X124937286Y-94630998D01*
X124794429Y-94559570D01*
X124151571Y-93630999D02*
X124151571Y-93488142D01*
X124223000Y-93345285D01*
X124294429Y-93273856D01*
X124437286Y-93202427D01*
X124723000Y-93130999D01*
X125080143Y-93130999D01*
X125365857Y-93202427D01*
X125508714Y-93273856D01*
X125580143Y-93345285D01*
X125651571Y-93488142D01*
X125651571Y-93630999D01*
X125580143Y-93773856D01*
X125508714Y-93845285D01*
X125365857Y-93916713D01*
X125080143Y-93988142D01*
X124723000Y-93988142D01*
X124437286Y-93916713D01*
X124294429Y-93845285D01*
X124223000Y-93773856D01*
X124151571Y-93630999D01*
X124651571Y-91845285D02*
X125651571Y-91845285D01*
X124080143Y-92202428D02*
X125151571Y-92559571D01*
X125151571Y-91630999D01*
X124151571Y-90773857D02*
X124151571Y-90631000D01*
X124223000Y-90488143D01*
X124294429Y-90416714D01*
X124437286Y-90345285D01*
X124723000Y-90273857D01*
X125080143Y-90273857D01*
X125365857Y-90345285D01*
X125508714Y-90416714D01*
X125580143Y-90488143D01*
X125651571Y-90631000D01*
X125651571Y-90773857D01*
X125580143Y-90916714D01*
X125508714Y-90988143D01*
X125365857Y-91059571D01*
X125080143Y-91131000D01*
X124723000Y-91131000D01*
X124437286Y-91059571D01*
X124294429Y-90988143D01*
X124223000Y-90916714D01*
X124151571Y-90773857D01*
X125651571Y-88845286D02*
X125651571Y-89702429D01*
X125651571Y-89273857D02*
X124151571Y-89273857D01*
X124365857Y-89416714D01*
X124508714Y-89559572D01*
X124580143Y-89702429D01*
D12*
X129540000Y-63500000D03*
D13*
X129540000Y-66040000D03*
X129540000Y-68580000D03*
X129540000Y-71120000D03*
X129540000Y-73660000D03*
X129540000Y-76200000D03*
X129540000Y-78740000D03*
X129540000Y-81280000D03*
X129540000Y-83820000D03*
X129540000Y-86360000D03*
X129540000Y-88900000D03*
X129540000Y-91440000D03*
X129540000Y-93980000D03*
X129540000Y-96520000D03*
X129540000Y-99060000D03*
X129540000Y-101600000D03*
X129540000Y-104140000D03*
X129540000Y-106680000D03*
X129540000Y-109220000D03*
X129540000Y-111760000D03*
D12*
X152400000Y-63500000D03*
D13*
X152400000Y-66040000D03*
X152400000Y-68580000D03*
X152400000Y-71120000D03*
X152400000Y-73660000D03*
X152400000Y-76200000D03*
X152400000Y-78740000D03*
X152400000Y-81280000D03*
X152400000Y-83820000D03*
X152400000Y-86360000D03*
X152400000Y-88900000D03*
X152400000Y-91440000D03*
X152400000Y-93980000D03*
X152400000Y-96520000D03*
X152400000Y-99060000D03*
X152400000Y-101600000D03*
X152400000Y-104140000D03*
X152400000Y-106680000D03*
X152400000Y-109220000D03*
X152400000Y-111760000D03*
M02*
