G04 #@! TF.FileFunction,Copper,L2,Bot,Signal*
%FSLAX46Y46*%
G04 Gerber Fmt 4.6, Leading zero omitted, Abs format (unit mm)*
G04 Created by KiCad (PCBNEW 4.0.7) date Wednesday, April 24, 2019 'AMt' 09:51:05 AM*
%MOMM*%
%LPD*%
G01*
G04 APERTURE LIST*
%ADD10C,0.100000*%
%ADD11C,0.300000*%
%ADD12R,5.000000X5.000000*%
%ADD13R,1.700000X1.700000*%
%ADD14O,1.700000X1.700000*%
%ADD15C,1.524000*%
G04 APERTURE END LIST*
D10*
D11*
X147390570Y-91690000D02*
X146676284Y-91690000D01*
X147533427Y-92118571D02*
X147033427Y-90618571D01*
X146533427Y-92118571D01*
X146104856Y-92047143D02*
X145961999Y-92118571D01*
X145676284Y-92118571D01*
X145533427Y-92047143D01*
X145461999Y-91904286D01*
X145461999Y-91832857D01*
X145533427Y-91690000D01*
X145676284Y-91618571D01*
X145890570Y-91618571D01*
X146033427Y-91547143D01*
X146104856Y-91404286D01*
X146104856Y-91332857D01*
X146033427Y-91190000D01*
X145890570Y-91118571D01*
X145676284Y-91118571D01*
X145533427Y-91190000D01*
X144819141Y-91975714D02*
X144747713Y-92047143D01*
X144819141Y-92118571D01*
X144890570Y-92047143D01*
X144819141Y-91975714D01*
X144819141Y-92118571D01*
X144104855Y-92118571D02*
X144104855Y-90618571D01*
X143247712Y-92118571D02*
X143890569Y-91261429D01*
X143247712Y-90618571D02*
X144104855Y-91475714D01*
X140676284Y-92118571D02*
X141533427Y-92118571D01*
X141104855Y-92118571D02*
X141104855Y-90618571D01*
X141247712Y-90832857D01*
X141390570Y-90975714D01*
X141533427Y-91047143D01*
X139961999Y-92118571D02*
X139676284Y-92118571D01*
X139533427Y-92047143D01*
X139461999Y-91975714D01*
X139319141Y-91761429D01*
X139247713Y-91475714D01*
X139247713Y-90904286D01*
X139319141Y-90761429D01*
X139390570Y-90690000D01*
X139533427Y-90618571D01*
X139819141Y-90618571D01*
X139961999Y-90690000D01*
X140033427Y-90761429D01*
X140104856Y-90904286D01*
X140104856Y-91261429D01*
X140033427Y-91404286D01*
X139961999Y-91475714D01*
X139819141Y-91547143D01*
X139533427Y-91547143D01*
X139390570Y-91475714D01*
X139319141Y-91404286D01*
X139247713Y-91261429D01*
X138319142Y-90618571D02*
X138176285Y-90618571D01*
X138033428Y-90690000D01*
X137961999Y-90761429D01*
X137890570Y-90904286D01*
X137819142Y-91190000D01*
X137819142Y-91547143D01*
X137890570Y-91832857D01*
X137961999Y-91975714D01*
X138033428Y-92047143D01*
X138176285Y-92118571D01*
X138319142Y-92118571D01*
X138461999Y-92047143D01*
X138533428Y-91975714D01*
X138604856Y-91832857D01*
X138676285Y-91547143D01*
X138676285Y-91190000D01*
X138604856Y-90904286D01*
X138533428Y-90761429D01*
X138461999Y-90690000D01*
X138319142Y-90618571D01*
X136533428Y-91118571D02*
X136533428Y-92118571D01*
X136890571Y-90547143D02*
X137247714Y-91618571D01*
X136319142Y-91618571D01*
X135462000Y-90618571D02*
X135319143Y-90618571D01*
X135176286Y-90690000D01*
X135104857Y-90761429D01*
X135033428Y-90904286D01*
X134962000Y-91190000D01*
X134962000Y-91547143D01*
X135033428Y-91832857D01*
X135104857Y-91975714D01*
X135176286Y-92047143D01*
X135319143Y-92118571D01*
X135462000Y-92118571D01*
X135604857Y-92047143D01*
X135676286Y-91975714D01*
X135747714Y-91832857D01*
X135819143Y-91547143D01*
X135819143Y-91190000D01*
X135747714Y-90904286D01*
X135676286Y-90761429D01*
X135604857Y-90690000D01*
X135462000Y-90618571D01*
X133533429Y-92118571D02*
X134390572Y-92118571D01*
X133962000Y-92118571D02*
X133962000Y-90618571D01*
X134104857Y-90832857D01*
X134247715Y-90975714D01*
X134390572Y-91047143D01*
X148358858Y-88745143D02*
X148216001Y-88816571D01*
X147930286Y-88816571D01*
X147787429Y-88745143D01*
X147716001Y-88602286D01*
X147716001Y-88530857D01*
X147787429Y-88388000D01*
X147930286Y-88316571D01*
X148144572Y-88316571D01*
X148287429Y-88245143D01*
X148358858Y-88102286D01*
X148358858Y-88030857D01*
X148287429Y-87888000D01*
X148144572Y-87816571D01*
X147930286Y-87816571D01*
X147787429Y-87888000D01*
X147216000Y-87816571D02*
X146858857Y-88816571D01*
X146501715Y-87816571D02*
X146858857Y-88816571D01*
X147001715Y-89173714D01*
X147073143Y-89245143D01*
X147216000Y-89316571D01*
X145930286Y-87816571D02*
X145930286Y-88816571D01*
X145930286Y-87959429D02*
X145858858Y-87888000D01*
X145716000Y-87816571D01*
X145501715Y-87816571D01*
X145358858Y-87888000D01*
X145287429Y-88030857D01*
X145287429Y-88816571D01*
X144787429Y-87816571D02*
X144216000Y-87816571D01*
X144573143Y-87316571D02*
X144573143Y-88602286D01*
X144501715Y-88745143D01*
X144358857Y-88816571D01*
X144216000Y-88816571D01*
X143716000Y-88816571D02*
X143716000Y-87316571D01*
X143073143Y-88816571D02*
X143073143Y-88030857D01*
X143144572Y-87888000D01*
X143287429Y-87816571D01*
X143501714Y-87816571D01*
X143644572Y-87888000D01*
X143716000Y-87959429D01*
X141787429Y-88745143D02*
X141930286Y-88816571D01*
X142216000Y-88816571D01*
X142358857Y-88745143D01*
X142430286Y-88602286D01*
X142430286Y-88030857D01*
X142358857Y-87888000D01*
X142216000Y-87816571D01*
X141930286Y-87816571D01*
X141787429Y-87888000D01*
X141716000Y-88030857D01*
X141716000Y-88173714D01*
X142430286Y-88316571D01*
X141144572Y-88745143D02*
X141001715Y-88816571D01*
X140716000Y-88816571D01*
X140573143Y-88745143D01*
X140501715Y-88602286D01*
X140501715Y-88530857D01*
X140573143Y-88388000D01*
X140716000Y-88316571D01*
X140930286Y-88316571D01*
X141073143Y-88245143D01*
X141144572Y-88102286D01*
X141144572Y-88030857D01*
X141073143Y-87888000D01*
X140930286Y-87816571D01*
X140716000Y-87816571D01*
X140573143Y-87888000D01*
X139858857Y-88816571D02*
X139858857Y-87816571D01*
X139858857Y-87316571D02*
X139930286Y-87388000D01*
X139858857Y-87459429D01*
X139787429Y-87388000D01*
X139858857Y-87316571D01*
X139858857Y-87459429D01*
X139216000Y-88745143D02*
X139073143Y-88816571D01*
X138787428Y-88816571D01*
X138644571Y-88745143D01*
X138573143Y-88602286D01*
X138573143Y-88530857D01*
X138644571Y-88388000D01*
X138787428Y-88316571D01*
X139001714Y-88316571D01*
X139144571Y-88245143D01*
X139216000Y-88102286D01*
X139216000Y-88030857D01*
X139144571Y-87888000D01*
X139001714Y-87816571D01*
X138787428Y-87816571D01*
X138644571Y-87888000D01*
X136858857Y-87245143D02*
X138144571Y-89173714D01*
X135715999Y-88816571D02*
X135715999Y-88030857D01*
X135787428Y-87888000D01*
X135930285Y-87816571D01*
X136215999Y-87816571D01*
X136358856Y-87888000D01*
X135715999Y-88745143D02*
X135858856Y-88816571D01*
X136215999Y-88816571D01*
X136358856Y-88745143D01*
X136430285Y-88602286D01*
X136430285Y-88459429D01*
X136358856Y-88316571D01*
X136215999Y-88245143D01*
X135858856Y-88245143D01*
X135715999Y-88173714D01*
X135073142Y-88745143D02*
X134930285Y-88816571D01*
X134644570Y-88816571D01*
X134501713Y-88745143D01*
X134430285Y-88602286D01*
X134430285Y-88530857D01*
X134501713Y-88388000D01*
X134644570Y-88316571D01*
X134858856Y-88316571D01*
X135001713Y-88245143D01*
X135073142Y-88102286D01*
X135073142Y-88030857D01*
X135001713Y-87888000D01*
X134858856Y-87816571D01*
X134644570Y-87816571D01*
X134501713Y-87888000D01*
X133144570Y-87816571D02*
X133144570Y-88816571D01*
X133787427Y-87816571D02*
X133787427Y-88602286D01*
X133715999Y-88745143D01*
X133573141Y-88816571D01*
X133358856Y-88816571D01*
X133215999Y-88745143D01*
X133144570Y-88673714D01*
D12*
X140081000Y-60452000D03*
X133985000Y-63373000D03*
X125095000Y-67818000D03*
X122682000Y-74168000D03*
X133985000Y-108204000D03*
D13*
X129540000Y-63500000D03*
D14*
X129540000Y-66040000D03*
X129540000Y-68580000D03*
X129540000Y-71120000D03*
X129540000Y-73660000D03*
X129540000Y-76200000D03*
X129540000Y-78740000D03*
X129540000Y-81280000D03*
X129540000Y-83820000D03*
X129540000Y-86360000D03*
X129540000Y-88900000D03*
X129540000Y-91440000D03*
X129540000Y-93980000D03*
X129540000Y-96520000D03*
X129540000Y-99060000D03*
X129540000Y-101600000D03*
X129540000Y-104140000D03*
X129540000Y-106680000D03*
X129540000Y-109220000D03*
X129540000Y-111760000D03*
D13*
X152400000Y-63500000D03*
D14*
X152400000Y-66040000D03*
X152400000Y-68580000D03*
X152400000Y-71120000D03*
X152400000Y-73660000D03*
X152400000Y-76200000D03*
X152400000Y-78740000D03*
X152400000Y-81280000D03*
X152400000Y-83820000D03*
X152400000Y-86360000D03*
X152400000Y-88900000D03*
X152400000Y-91440000D03*
X152400000Y-93980000D03*
X152400000Y-96520000D03*
X152400000Y-99060000D03*
X152400000Y-101600000D03*
X152400000Y-104140000D03*
X152400000Y-106680000D03*
X152400000Y-109220000D03*
X152400000Y-111760000D03*
D12*
X158877000Y-107950000D03*
D15*
X129540000Y-83820000D02*
X134366000Y-83820000D01*
X140081000Y-78105000D02*
X140081000Y-60452000D01*
X134366000Y-83820000D02*
X140081000Y-78105000D01*
X129540000Y-76200000D02*
X132207000Y-76200000D01*
X133985000Y-74422000D02*
X133985000Y-63373000D01*
X132207000Y-76200000D02*
X133985000Y-74422000D01*
X129540000Y-78740000D02*
X128143000Y-78740000D01*
X126746000Y-77343000D02*
X126746000Y-69469000D01*
X128143000Y-78740000D02*
X126746000Y-77343000D01*
X126746000Y-69469000D02*
X125095000Y-67818000D01*
X129540000Y-81280000D02*
X125730000Y-81280000D01*
X122682000Y-78232000D02*
X122682000Y-74168000D01*
X125730000Y-81280000D02*
X122682000Y-78232000D01*
X129540000Y-99060000D02*
X132207000Y-99060000D01*
X133985000Y-100838000D02*
X133985000Y-108204000D01*
X132207000Y-99060000D02*
X133985000Y-100838000D01*
X152400000Y-96520000D02*
X155194000Y-96520000D01*
X158877000Y-100203000D02*
X158877000Y-107950000D01*
X155194000Y-96520000D02*
X158877000Y-100203000D01*
M02*
