G04 #@! TF.FileFunction,Copper,L2,Bot,Signal*
%FSLAX46Y46*%
G04 Gerber Fmt 4.6, Leading zero omitted, Abs format (unit mm)*
G04 Created by KiCad (PCBNEW 4.0.7) date Tuesday, April 30, 2019 'PMt' 04:55:04 PM*
%MOMM*%
%LPD*%
G01*
G04 APERTURE LIST*
%ADD10C,0.100000*%
%ADD11C,0.300000*%
%ADD12R,5.000000X5.000000*%
%ADD13R,1.700000X1.700000*%
%ADD14O,1.700000X1.700000*%
%ADD15C,1.524000*%
G04 APERTURE END LIST*
D10*
D11*
X140556143Y-78177428D02*
X140627571Y-78391714D01*
X140627571Y-78748857D01*
X140556143Y-78891714D01*
X140484714Y-78963143D01*
X140341857Y-79034571D01*
X140199000Y-79034571D01*
X140056143Y-78963143D01*
X139984714Y-78891714D01*
X139913286Y-78748857D01*
X139841857Y-78463143D01*
X139770429Y-78320285D01*
X139699000Y-78248857D01*
X139556143Y-78177428D01*
X139413286Y-78177428D01*
X139270429Y-78248857D01*
X139199000Y-78320285D01*
X139127571Y-78463143D01*
X139127571Y-78820285D01*
X139199000Y-79034571D01*
X139627571Y-79534571D02*
X140627571Y-79891714D01*
X139627571Y-80248856D02*
X140627571Y-79891714D01*
X140984714Y-79748856D01*
X141056143Y-79677428D01*
X141127571Y-79534571D01*
X139627571Y-80820285D02*
X140627571Y-80820285D01*
X139770429Y-80820285D02*
X139699000Y-80891713D01*
X139627571Y-81034571D01*
X139627571Y-81248856D01*
X139699000Y-81391713D01*
X139841857Y-81463142D01*
X140627571Y-81463142D01*
X139627571Y-81963142D02*
X139627571Y-82534571D01*
X139127571Y-82177428D02*
X140413286Y-82177428D01*
X140556143Y-82248856D01*
X140627571Y-82391714D01*
X140627571Y-82534571D01*
X140627571Y-83034571D02*
X139127571Y-83034571D01*
X140627571Y-83677428D02*
X139841857Y-83677428D01*
X139699000Y-83605999D01*
X139627571Y-83463142D01*
X139627571Y-83248857D01*
X139699000Y-83105999D01*
X139770429Y-83034571D01*
X140556143Y-84963142D02*
X140627571Y-84820285D01*
X140627571Y-84534571D01*
X140556143Y-84391714D01*
X140413286Y-84320285D01*
X139841857Y-84320285D01*
X139699000Y-84391714D01*
X139627571Y-84534571D01*
X139627571Y-84820285D01*
X139699000Y-84963142D01*
X139841857Y-85034571D01*
X139984714Y-85034571D01*
X140127571Y-84320285D01*
X140556143Y-85605999D02*
X140627571Y-85748856D01*
X140627571Y-86034571D01*
X140556143Y-86177428D01*
X140413286Y-86248856D01*
X140341857Y-86248856D01*
X140199000Y-86177428D01*
X140127571Y-86034571D01*
X140127571Y-85820285D01*
X140056143Y-85677428D01*
X139913286Y-85605999D01*
X139841857Y-85605999D01*
X139699000Y-85677428D01*
X139627571Y-85820285D01*
X139627571Y-86034571D01*
X139699000Y-86177428D01*
X140627571Y-86891714D02*
X139627571Y-86891714D01*
X139127571Y-86891714D02*
X139199000Y-86820285D01*
X139270429Y-86891714D01*
X139199000Y-86963142D01*
X139127571Y-86891714D01*
X139270429Y-86891714D01*
X140556143Y-87534571D02*
X140627571Y-87677428D01*
X140627571Y-87963143D01*
X140556143Y-88106000D01*
X140413286Y-88177428D01*
X140341857Y-88177428D01*
X140199000Y-88106000D01*
X140127571Y-87963143D01*
X140127571Y-87748857D01*
X140056143Y-87606000D01*
X139913286Y-87534571D01*
X139841857Y-87534571D01*
X139699000Y-87606000D01*
X139627571Y-87748857D01*
X139627571Y-87963143D01*
X139699000Y-88106000D01*
X139056143Y-89891714D02*
X140984714Y-88606000D01*
X140199000Y-90320286D02*
X140199000Y-91034572D01*
X140627571Y-90177429D02*
X139127571Y-90677429D01*
X140627571Y-91177429D01*
X140556143Y-91606000D02*
X140627571Y-91820286D01*
X140627571Y-92177429D01*
X140556143Y-92320286D01*
X140484714Y-92391715D01*
X140341857Y-92463143D01*
X140199000Y-92463143D01*
X140056143Y-92391715D01*
X139984714Y-92320286D01*
X139913286Y-92177429D01*
X139841857Y-91891715D01*
X139770429Y-91748857D01*
X139699000Y-91677429D01*
X139556143Y-91606000D01*
X139413286Y-91606000D01*
X139270429Y-91677429D01*
X139199000Y-91748857D01*
X139127571Y-91891715D01*
X139127571Y-92248857D01*
X139199000Y-92463143D01*
X139127571Y-93106000D02*
X140341857Y-93106000D01*
X140484714Y-93177428D01*
X140556143Y-93248857D01*
X140627571Y-93391714D01*
X140627571Y-93677428D01*
X140556143Y-93820286D01*
X140484714Y-93891714D01*
X140341857Y-93963143D01*
X139127571Y-93963143D01*
X142749000Y-79320287D02*
X142749000Y-80034573D01*
X143177571Y-79177430D02*
X141677571Y-79677430D01*
X143177571Y-80177430D01*
X143106143Y-80606001D02*
X143177571Y-80748858D01*
X143177571Y-81034573D01*
X143106143Y-81177430D01*
X142963286Y-81248858D01*
X142891857Y-81248858D01*
X142749000Y-81177430D01*
X142677571Y-81034573D01*
X142677571Y-80820287D01*
X142606143Y-80677430D01*
X142463286Y-80606001D01*
X142391857Y-80606001D01*
X142249000Y-80677430D01*
X142177571Y-80820287D01*
X142177571Y-81034573D01*
X142249000Y-81177430D01*
X143034714Y-81891716D02*
X143106143Y-81963144D01*
X143177571Y-81891716D01*
X143106143Y-81820287D01*
X143034714Y-81891716D01*
X143177571Y-81891716D01*
X143177571Y-82606002D02*
X141677571Y-82606002D01*
X142606143Y-82748859D02*
X143177571Y-83177430D01*
X142177571Y-83177430D02*
X142749000Y-82606002D01*
X143177571Y-85748859D02*
X143177571Y-84891716D01*
X143177571Y-85320288D02*
X141677571Y-85320288D01*
X141891857Y-85177431D01*
X142034714Y-85034573D01*
X142106143Y-84891716D01*
X143177571Y-86463144D02*
X143177571Y-86748859D01*
X143106143Y-86891716D01*
X143034714Y-86963144D01*
X142820429Y-87106002D01*
X142534714Y-87177430D01*
X141963286Y-87177430D01*
X141820429Y-87106002D01*
X141749000Y-87034573D01*
X141677571Y-86891716D01*
X141677571Y-86606002D01*
X141749000Y-86463144D01*
X141820429Y-86391716D01*
X141963286Y-86320287D01*
X142320429Y-86320287D01*
X142463286Y-86391716D01*
X142534714Y-86463144D01*
X142606143Y-86606002D01*
X142606143Y-86891716D01*
X142534714Y-87034573D01*
X142463286Y-87106002D01*
X142320429Y-87177430D01*
X141677571Y-88106001D02*
X141677571Y-88248858D01*
X141749000Y-88391715D01*
X141820429Y-88463144D01*
X141963286Y-88534573D01*
X142249000Y-88606001D01*
X142606143Y-88606001D01*
X142891857Y-88534573D01*
X143034714Y-88463144D01*
X143106143Y-88391715D01*
X143177571Y-88248858D01*
X143177571Y-88106001D01*
X143106143Y-87963144D01*
X143034714Y-87891715D01*
X142891857Y-87820287D01*
X142606143Y-87748858D01*
X142249000Y-87748858D01*
X141963286Y-87820287D01*
X141820429Y-87891715D01*
X141749000Y-87963144D01*
X141677571Y-88106001D01*
X142177571Y-89891715D02*
X143177571Y-89891715D01*
X141606143Y-89534572D02*
X142677571Y-89177429D01*
X142677571Y-90106001D01*
X141677571Y-90963143D02*
X141677571Y-91106000D01*
X141749000Y-91248857D01*
X141820429Y-91320286D01*
X141963286Y-91391715D01*
X142249000Y-91463143D01*
X142606143Y-91463143D01*
X142891857Y-91391715D01*
X143034714Y-91320286D01*
X143106143Y-91248857D01*
X143177571Y-91106000D01*
X143177571Y-90963143D01*
X143106143Y-90820286D01*
X143034714Y-90748857D01*
X142891857Y-90677429D01*
X142606143Y-90606000D01*
X142249000Y-90606000D01*
X141963286Y-90677429D01*
X141820429Y-90748857D01*
X141749000Y-90820286D01*
X141677571Y-90963143D01*
X141820429Y-92034571D02*
X141749000Y-92106000D01*
X141677571Y-92248857D01*
X141677571Y-92606000D01*
X141749000Y-92748857D01*
X141820429Y-92820286D01*
X141963286Y-92891714D01*
X142106143Y-92891714D01*
X142320429Y-92820286D01*
X143177571Y-91963143D01*
X143177571Y-92891714D01*
D12*
X122428000Y-74676000D03*
X140589000Y-59817000D03*
X134239000Y-62865000D03*
X125222000Y-68453000D03*
X134493000Y-108077000D03*
D13*
X129540000Y-63500000D03*
D14*
X129540000Y-66040000D03*
X129540000Y-68580000D03*
X129540000Y-71120000D03*
X129540000Y-73660000D03*
X129540000Y-76200000D03*
X129540000Y-78740000D03*
X129540000Y-81280000D03*
X129540000Y-83820000D03*
X129540000Y-86360000D03*
X129540000Y-88900000D03*
X129540000Y-91440000D03*
X129540000Y-93980000D03*
X129540000Y-96520000D03*
X129540000Y-99060000D03*
X129540000Y-101600000D03*
X129540000Y-104140000D03*
X129540000Y-106680000D03*
X129540000Y-109220000D03*
X129540000Y-111760000D03*
D13*
X152400000Y-63500000D03*
D14*
X152400000Y-66040000D03*
X152400000Y-68580000D03*
X152400000Y-71120000D03*
X152400000Y-73660000D03*
X152400000Y-76200000D03*
X152400000Y-78740000D03*
X152400000Y-81280000D03*
X152400000Y-83820000D03*
X152400000Y-86360000D03*
X152400000Y-88900000D03*
X152400000Y-91440000D03*
X152400000Y-93980000D03*
X152400000Y-96520000D03*
X152400000Y-99060000D03*
X152400000Y-101600000D03*
X152400000Y-104140000D03*
X152400000Y-106680000D03*
X152400000Y-109220000D03*
X152400000Y-111760000D03*
D12*
X158877000Y-108077000D03*
D15*
X129540000Y-83820000D02*
X125222000Y-83820000D01*
X122428000Y-81026000D02*
X122428000Y-74676000D01*
X125222000Y-83820000D02*
X122428000Y-81026000D01*
X152400000Y-63500000D02*
X144272000Y-63500000D01*
X144272000Y-63500000D02*
X140589000Y-59817000D01*
X129540000Y-101600000D02*
X132461000Y-101600000D01*
X134239000Y-99822000D02*
X134239000Y-62865000D01*
X132461000Y-101600000D02*
X134239000Y-99822000D01*
X129540000Y-81280000D02*
X128524000Y-81280000D01*
X126873000Y-79629000D02*
X126873000Y-70104000D01*
X128524000Y-81280000D02*
X126873000Y-79629000D01*
X126873000Y-70104000D02*
X125222000Y-68453000D01*
X129540000Y-104140000D02*
X132842000Y-104140000D01*
X132842000Y-104140000D02*
X134493000Y-105791000D01*
X134493000Y-105791000D02*
X134493000Y-108077000D01*
X152400000Y-96520000D02*
X156718000Y-96520000D01*
X158877000Y-98679000D02*
X158877000Y-108077000D01*
X156718000Y-96520000D02*
X158877000Y-98679000D01*
M02*
