G04 #@! TF.FileFunction,Legend,Top*
%FSLAX46Y46*%
G04 Gerber Fmt 4.6, Leading zero omitted, Abs format (unit mm)*
G04 Created by KiCad (PCBNEW 4.0.7) date Tuesday, April 30, 2019 'PMt' 04:55:04 PM*
%MOMM*%
%LPD*%
G01*
G04 APERTURE LIST*
%ADD10C,0.100000*%
%ADD11C,0.120000*%
%ADD12C,0.150000*%
G04 APERTURE END LIST*
D10*
D11*
X128210000Y-113090000D02*
X130870000Y-113090000D01*
X128210000Y-64770000D02*
X128210000Y-113090000D01*
X130870000Y-64770000D02*
X130870000Y-113090000D01*
X128210000Y-64770000D02*
X130870000Y-64770000D01*
X128210000Y-63500000D02*
X128210000Y-62170000D01*
X128210000Y-62170000D02*
X129540000Y-62170000D01*
X151070000Y-113090000D02*
X153730000Y-113090000D01*
X151070000Y-64770000D02*
X151070000Y-113090000D01*
X153730000Y-64770000D02*
X153730000Y-113090000D01*
X151070000Y-64770000D02*
X153730000Y-64770000D01*
X151070000Y-63500000D02*
X151070000Y-62170000D01*
X151070000Y-62170000D02*
X152400000Y-62170000D01*
D12*
X129206667Y-60622381D02*
X129206667Y-61336667D01*
X129159047Y-61479524D01*
X129063809Y-61574762D01*
X128920952Y-61622381D01*
X128825714Y-61622381D01*
X130111429Y-60622381D02*
X129920952Y-60622381D01*
X129825714Y-60670000D01*
X129778095Y-60717619D01*
X129682857Y-60860476D01*
X129635238Y-61050952D01*
X129635238Y-61431905D01*
X129682857Y-61527143D01*
X129730476Y-61574762D01*
X129825714Y-61622381D01*
X130016191Y-61622381D01*
X130111429Y-61574762D01*
X130159048Y-61527143D01*
X130206667Y-61431905D01*
X130206667Y-61193810D01*
X130159048Y-61098571D01*
X130111429Y-61050952D01*
X130016191Y-61003333D01*
X129825714Y-61003333D01*
X129730476Y-61050952D01*
X129682857Y-61098571D01*
X129635238Y-61193810D01*
X126896762Y-113640810D02*
X126944381Y-113736048D01*
X126944381Y-113926525D01*
X126896762Y-114021763D01*
X126801524Y-114069382D01*
X126420571Y-114069382D01*
X126325333Y-114021763D01*
X126277714Y-113926525D01*
X126277714Y-113736048D01*
X126325333Y-113640810D01*
X126420571Y-113593191D01*
X126515810Y-113593191D01*
X126611048Y-114069382D01*
X126896762Y-113212239D02*
X126944381Y-113117001D01*
X126944381Y-112926525D01*
X126896762Y-112831286D01*
X126801524Y-112783667D01*
X126753905Y-112783667D01*
X126658667Y-112831286D01*
X126611048Y-112926525D01*
X126611048Y-113069382D01*
X126563429Y-113164620D01*
X126468190Y-113212239D01*
X126420571Y-113212239D01*
X126325333Y-113164620D01*
X126277714Y-113069382D01*
X126277714Y-112926525D01*
X126325333Y-112831286D01*
X126277714Y-112355096D02*
X127277714Y-112355096D01*
X126325333Y-112355096D02*
X126277714Y-112259858D01*
X126277714Y-112069381D01*
X126325333Y-111974143D01*
X126372952Y-111926524D01*
X126468190Y-111878905D01*
X126753905Y-111878905D01*
X126849143Y-111926524D01*
X126896762Y-111974143D01*
X126944381Y-112069381D01*
X126944381Y-112259858D01*
X126896762Y-112355096D01*
X125944381Y-111545572D02*
X125944381Y-110926524D01*
X126325333Y-111259858D01*
X126325333Y-111117000D01*
X126372952Y-111021762D01*
X126420571Y-110974143D01*
X126515810Y-110926524D01*
X126753905Y-110926524D01*
X126849143Y-110974143D01*
X126896762Y-111021762D01*
X126944381Y-111117000D01*
X126944381Y-111402715D01*
X126896762Y-111497953D01*
X126849143Y-111545572D01*
X126039619Y-110545572D02*
X125992000Y-110497953D01*
X125944381Y-110402715D01*
X125944381Y-110164619D01*
X125992000Y-110069381D01*
X126039619Y-110021762D01*
X126134857Y-109974143D01*
X126230095Y-109974143D01*
X126372952Y-110021762D01*
X126944381Y-110593191D01*
X126944381Y-109974143D01*
X126944381Y-109069381D02*
X126944381Y-109545572D01*
X125944381Y-109545572D01*
X126896762Y-108355095D02*
X126944381Y-108450333D01*
X126944381Y-108640810D01*
X126896762Y-108736048D01*
X126801524Y-108783667D01*
X126420571Y-108783667D01*
X126325333Y-108736048D01*
X126277714Y-108640810D01*
X126277714Y-108450333D01*
X126325333Y-108355095D01*
X126420571Y-108307476D01*
X126515810Y-108307476D01*
X126611048Y-108783667D01*
X126277714Y-108021762D02*
X126277714Y-107640810D01*
X126944381Y-107878905D02*
X126087238Y-107878905D01*
X125992000Y-107831286D01*
X125944381Y-107736048D01*
X125944381Y-107640810D01*
X126277714Y-107450333D02*
X126277714Y-107069381D01*
X125944381Y-107307476D02*
X126801524Y-107307476D01*
X126896762Y-107259857D01*
X126944381Y-107164619D01*
X126944381Y-107069381D01*
X124547381Y-113363333D02*
X125261667Y-113363333D01*
X125404524Y-113410953D01*
X125499762Y-113506191D01*
X125547381Y-113649048D01*
X125547381Y-113744286D01*
X124547381Y-112458571D02*
X124547381Y-112649048D01*
X124595000Y-112744286D01*
X124642619Y-112791905D01*
X124785476Y-112887143D01*
X124975952Y-112934762D01*
X125356905Y-112934762D01*
X125452143Y-112887143D01*
X125499762Y-112839524D01*
X125547381Y-112744286D01*
X125547381Y-112553809D01*
X125499762Y-112458571D01*
X125452143Y-112410952D01*
X125356905Y-112363333D01*
X125118810Y-112363333D01*
X125023571Y-112410952D01*
X124975952Y-112458571D01*
X124928333Y-112553809D01*
X124928333Y-112744286D01*
X124975952Y-112839524D01*
X125023571Y-112887143D01*
X125118810Y-112934762D01*
X152066667Y-60622381D02*
X152066667Y-61336667D01*
X152019047Y-61479524D01*
X151923809Y-61574762D01*
X151780952Y-61622381D01*
X151685714Y-61622381D01*
X152447619Y-60622381D02*
X153114286Y-60622381D01*
X152685714Y-61622381D01*
X149756762Y-111434143D02*
X149804381Y-111529381D01*
X149804381Y-111719858D01*
X149756762Y-111815096D01*
X149661524Y-111862715D01*
X149280571Y-111862715D01*
X149185333Y-111815096D01*
X149137714Y-111719858D01*
X149137714Y-111529381D01*
X149185333Y-111434143D01*
X149280571Y-111386524D01*
X149375810Y-111386524D01*
X149471048Y-111862715D01*
X149756762Y-111005572D02*
X149804381Y-110910334D01*
X149804381Y-110719858D01*
X149756762Y-110624619D01*
X149661524Y-110577000D01*
X149613905Y-110577000D01*
X149518667Y-110624619D01*
X149471048Y-110719858D01*
X149471048Y-110862715D01*
X149423429Y-110957953D01*
X149328190Y-111005572D01*
X149280571Y-111005572D01*
X149185333Y-110957953D01*
X149137714Y-110862715D01*
X149137714Y-110719858D01*
X149185333Y-110624619D01*
X149137714Y-110148429D02*
X150137714Y-110148429D01*
X149185333Y-110148429D02*
X149137714Y-110053191D01*
X149137714Y-109862714D01*
X149185333Y-109767476D01*
X149232952Y-109719857D01*
X149328190Y-109672238D01*
X149613905Y-109672238D01*
X149709143Y-109719857D01*
X149756762Y-109767476D01*
X149804381Y-109862714D01*
X149804381Y-110053191D01*
X149756762Y-110148429D01*
X148804381Y-109338905D02*
X148804381Y-108719857D01*
X149185333Y-109053191D01*
X149185333Y-108910333D01*
X149232952Y-108815095D01*
X149280571Y-108767476D01*
X149375810Y-108719857D01*
X149613905Y-108719857D01*
X149709143Y-108767476D01*
X149756762Y-108815095D01*
X149804381Y-108910333D01*
X149804381Y-109196048D01*
X149756762Y-109291286D01*
X149709143Y-109338905D01*
X148899619Y-108338905D02*
X148852000Y-108291286D01*
X148804381Y-108196048D01*
X148804381Y-107957952D01*
X148852000Y-107862714D01*
X148899619Y-107815095D01*
X148994857Y-107767476D01*
X149090095Y-107767476D01*
X149232952Y-107815095D01*
X149804381Y-108386524D01*
X149804381Y-107767476D01*
X149804381Y-107338905D02*
X149137714Y-107338905D01*
X149328190Y-107338905D02*
X149232952Y-107291286D01*
X149185333Y-107243667D01*
X149137714Y-107148429D01*
X149137714Y-107053190D01*
X149804381Y-106719857D02*
X149137714Y-106719857D01*
X148804381Y-106719857D02*
X148852000Y-106767476D01*
X148899619Y-106719857D01*
X148852000Y-106672238D01*
X148804381Y-106719857D01*
X148899619Y-106719857D01*
X149137714Y-105815095D02*
X149947238Y-105815095D01*
X150042476Y-105862714D01*
X150090095Y-105910333D01*
X150137714Y-106005572D01*
X150137714Y-106148429D01*
X150090095Y-106243667D01*
X149756762Y-105815095D02*
X149804381Y-105910333D01*
X149804381Y-106100810D01*
X149756762Y-106196048D01*
X149709143Y-106243667D01*
X149613905Y-106291286D01*
X149328190Y-106291286D01*
X149232952Y-106243667D01*
X149185333Y-106196048D01*
X149137714Y-106100810D01*
X149137714Y-105910333D01*
X149185333Y-105815095D01*
X149804381Y-105338905D02*
X148804381Y-105338905D01*
X149804381Y-104910333D02*
X149280571Y-104910333D01*
X149185333Y-104957952D01*
X149137714Y-105053190D01*
X149137714Y-105196048D01*
X149185333Y-105291286D01*
X149232952Y-105338905D01*
X149137714Y-104577000D02*
X149137714Y-104196048D01*
X148804381Y-104434143D02*
X149661524Y-104434143D01*
X149756762Y-104386524D01*
X149804381Y-104291286D01*
X149804381Y-104196048D01*
X147280381Y-111077333D02*
X147994667Y-111077333D01*
X148137524Y-111124953D01*
X148232762Y-111220191D01*
X148280381Y-111363048D01*
X148280381Y-111458286D01*
X147280381Y-110696381D02*
X147280381Y-110029714D01*
X148280381Y-110458286D01*
M02*
