G04 #@! TF.FileFunction,Legend,Bot*
%FSLAX46Y46*%
G04 Gerber Fmt 4.6, Leading zero omitted, Abs format (unit mm)*
G04 Created by KiCad (PCBNEW 4.0.7) date Tuesday, April 30, 2019 'PMt' 04:55:04 PM*
%MOMM*%
%LPD*%
G01*
G04 APERTURE LIST*
%ADD10C,0.100000*%
%ADD11C,0.150000*%
G04 APERTURE END LIST*
D10*
D11*
X124793333Y-78192381D02*
X124793333Y-78906667D01*
X124840953Y-79049524D01*
X124936191Y-79144762D01*
X125079048Y-79192381D01*
X125174286Y-79192381D01*
X123793333Y-79192381D02*
X124364762Y-79192381D01*
X124079048Y-79192381D02*
X124079048Y-78192381D01*
X124174286Y-78335238D01*
X124269524Y-78430476D01*
X124364762Y-78478095D01*
X122062762Y-71016762D02*
X121967524Y-71064381D01*
X121777048Y-71064381D01*
X121681809Y-71016762D01*
X121634190Y-70921524D01*
X121634190Y-70873905D01*
X121681809Y-70778667D01*
X121777048Y-70731048D01*
X121919905Y-70731048D01*
X122015143Y-70683429D01*
X122062762Y-70588190D01*
X122062762Y-70540571D01*
X122015143Y-70445333D01*
X121919905Y-70397714D01*
X121777048Y-70397714D01*
X121681809Y-70445333D01*
X120777047Y-71016762D02*
X120872285Y-71064381D01*
X121062762Y-71064381D01*
X121158000Y-71016762D01*
X121205619Y-70969143D01*
X121253238Y-70873905D01*
X121253238Y-70588190D01*
X121205619Y-70492952D01*
X121158000Y-70445333D01*
X121062762Y-70397714D01*
X120872285Y-70397714D01*
X120777047Y-70445333D01*
X120205619Y-71064381D02*
X120300857Y-71016762D01*
X120348476Y-70921524D01*
X120348476Y-70064381D01*
X140922333Y-63079381D02*
X140922333Y-63793667D01*
X140969953Y-63936524D01*
X141065191Y-64031762D01*
X141208048Y-64079381D01*
X141303286Y-64079381D01*
X140493762Y-63174619D02*
X140446143Y-63127000D01*
X140350905Y-63079381D01*
X140112809Y-63079381D01*
X140017571Y-63127000D01*
X139969952Y-63174619D01*
X139922333Y-63269857D01*
X139922333Y-63365095D01*
X139969952Y-63507952D01*
X140541381Y-64079381D01*
X139922333Y-64079381D01*
X145597476Y-58967714D02*
X145597476Y-59777238D01*
X145645095Y-59872476D01*
X145692714Y-59920095D01*
X145787953Y-59967714D01*
X145930810Y-59967714D01*
X146026048Y-59920095D01*
X145597476Y-59586762D02*
X145692714Y-59634381D01*
X145883191Y-59634381D01*
X145978429Y-59586762D01*
X146026048Y-59539143D01*
X146073667Y-59443905D01*
X146073667Y-59158190D01*
X146026048Y-59062952D01*
X145978429Y-59015333D01*
X145883191Y-58967714D01*
X145692714Y-58967714D01*
X145597476Y-59015333D01*
X145121286Y-58967714D02*
X145121286Y-59634381D01*
X145121286Y-59062952D02*
X145073667Y-59015333D01*
X144978429Y-58967714D01*
X144835571Y-58967714D01*
X144740333Y-59015333D01*
X144692714Y-59110571D01*
X144692714Y-59634381D01*
X143787952Y-59634381D02*
X143787952Y-58634381D01*
X143787952Y-59586762D02*
X143883190Y-59634381D01*
X144073667Y-59634381D01*
X144168905Y-59586762D01*
X144216524Y-59539143D01*
X144264143Y-59443905D01*
X144264143Y-59158190D01*
X144216524Y-59062952D01*
X144168905Y-59015333D01*
X144073667Y-58967714D01*
X143883190Y-58967714D01*
X143787952Y-59015333D01*
X136604333Y-66381381D02*
X136604333Y-67095667D01*
X136651953Y-67238524D01*
X136747191Y-67333762D01*
X136890048Y-67381381D01*
X136985286Y-67381381D01*
X136223381Y-66381381D02*
X135604333Y-66381381D01*
X135937667Y-66762333D01*
X135794809Y-66762333D01*
X135699571Y-66809952D01*
X135651952Y-66857571D01*
X135604333Y-66952810D01*
X135604333Y-67190905D01*
X135651952Y-67286143D01*
X135699571Y-67333762D01*
X135794809Y-67381381D01*
X136080524Y-67381381D01*
X136175762Y-67333762D01*
X136223381Y-67286143D01*
X135429476Y-58253381D02*
X134810428Y-58253381D01*
X135143762Y-58634333D01*
X135000904Y-58634333D01*
X134905666Y-58681952D01*
X134858047Y-58729571D01*
X134810428Y-58824810D01*
X134810428Y-59062905D01*
X134858047Y-59158143D01*
X134905666Y-59205762D01*
X135000904Y-59253381D01*
X135286619Y-59253381D01*
X135381857Y-59205762D01*
X135429476Y-59158143D01*
X134477095Y-58586714D02*
X134239000Y-59253381D01*
X134000904Y-58586714D01*
X133715190Y-58253381D02*
X133096142Y-58253381D01*
X133429476Y-58634333D01*
X133286618Y-58634333D01*
X133191380Y-58681952D01*
X133143761Y-58729571D01*
X133096142Y-58824810D01*
X133096142Y-59062905D01*
X133143761Y-59158143D01*
X133191380Y-59205762D01*
X133286618Y-59253381D01*
X133572333Y-59253381D01*
X133667571Y-59205762D01*
X133715190Y-59158143D01*
X123015333Y-63714381D02*
X123015333Y-64428667D01*
X123062953Y-64571524D01*
X123158191Y-64666762D01*
X123301048Y-64714381D01*
X123396286Y-64714381D01*
X122110571Y-64047714D02*
X122110571Y-64714381D01*
X122348667Y-63666762D02*
X122586762Y-64381048D01*
X121967714Y-64381048D01*
X126341048Y-64666762D02*
X126245810Y-64714381D01*
X126055334Y-64714381D01*
X125960095Y-64666762D01*
X125912476Y-64571524D01*
X125912476Y-64523905D01*
X125960095Y-64428667D01*
X126055334Y-64381048D01*
X126198191Y-64381048D01*
X126293429Y-64333429D01*
X126341048Y-64238190D01*
X126341048Y-64190571D01*
X126293429Y-64095333D01*
X126198191Y-64047714D01*
X126055334Y-64047714D01*
X125960095Y-64095333D01*
X125055333Y-64714381D02*
X125055333Y-63714381D01*
X125055333Y-64666762D02*
X125150571Y-64714381D01*
X125341048Y-64714381D01*
X125436286Y-64666762D01*
X125483905Y-64619143D01*
X125531524Y-64523905D01*
X125531524Y-64238190D01*
X125483905Y-64142952D01*
X125436286Y-64095333D01*
X125341048Y-64047714D01*
X125150571Y-64047714D01*
X125055333Y-64095333D01*
X124150571Y-64714381D02*
X124150571Y-64190571D01*
X124198190Y-64095333D01*
X124293428Y-64047714D01*
X124483905Y-64047714D01*
X124579143Y-64095333D01*
X124150571Y-64666762D02*
X124245809Y-64714381D01*
X124483905Y-64714381D01*
X124579143Y-64666762D01*
X124626762Y-64571524D01*
X124626762Y-64476286D01*
X124579143Y-64381048D01*
X124483905Y-64333429D01*
X124245809Y-64333429D01*
X124150571Y-64285810D01*
X134826333Y-111339381D02*
X134826333Y-112053667D01*
X134873953Y-112196524D01*
X134969191Y-112291762D01*
X135112048Y-112339381D01*
X135207286Y-112339381D01*
X133873952Y-111339381D02*
X134350143Y-111339381D01*
X134397762Y-111815571D01*
X134350143Y-111767952D01*
X134254905Y-111720333D01*
X134016809Y-111720333D01*
X133921571Y-111767952D01*
X133873952Y-111815571D01*
X133826333Y-111910810D01*
X133826333Y-112148905D01*
X133873952Y-112244143D01*
X133921571Y-112291762D01*
X134016809Y-112339381D01*
X134254905Y-112339381D01*
X134350143Y-112291762D01*
X134397762Y-112244143D01*
X139755476Y-107735714D02*
X139755476Y-108545238D01*
X139803095Y-108640476D01*
X139850714Y-108688095D01*
X139945953Y-108735714D01*
X140088810Y-108735714D01*
X140184048Y-108688095D01*
X139755476Y-108354762D02*
X139850714Y-108402381D01*
X140041191Y-108402381D01*
X140136429Y-108354762D01*
X140184048Y-108307143D01*
X140231667Y-108211905D01*
X140231667Y-107926190D01*
X140184048Y-107830952D01*
X140136429Y-107783333D01*
X140041191Y-107735714D01*
X139850714Y-107735714D01*
X139755476Y-107783333D01*
X139279286Y-107735714D02*
X139279286Y-108402381D01*
X139279286Y-107830952D02*
X139231667Y-107783333D01*
X139136429Y-107735714D01*
X138993571Y-107735714D01*
X138898333Y-107783333D01*
X138850714Y-107878571D01*
X138850714Y-108402381D01*
X137945952Y-108402381D02*
X137945952Y-107402381D01*
X137945952Y-108354762D02*
X138041190Y-108402381D01*
X138231667Y-108402381D01*
X138326905Y-108354762D01*
X138374524Y-108307143D01*
X138422143Y-108211905D01*
X138422143Y-107926190D01*
X138374524Y-107830952D01*
X138326905Y-107783333D01*
X138231667Y-107735714D01*
X138041190Y-107735714D01*
X137945952Y-107783333D01*
X159210333Y-111339381D02*
X159210333Y-112053667D01*
X159257953Y-112196524D01*
X159353191Y-112291762D01*
X159496048Y-112339381D01*
X159591286Y-112339381D01*
X158591286Y-111767952D02*
X158686524Y-111720333D01*
X158734143Y-111672714D01*
X158781762Y-111577476D01*
X158781762Y-111529857D01*
X158734143Y-111434619D01*
X158686524Y-111387000D01*
X158591286Y-111339381D01*
X158400809Y-111339381D01*
X158305571Y-111387000D01*
X158257952Y-111434619D01*
X158210333Y-111529857D01*
X158210333Y-111577476D01*
X158257952Y-111672714D01*
X158305571Y-111720333D01*
X158400809Y-111767952D01*
X158591286Y-111767952D01*
X158686524Y-111815571D01*
X158734143Y-111863190D01*
X158781762Y-111958429D01*
X158781762Y-112148905D01*
X158734143Y-112244143D01*
X158686524Y-112291762D01*
X158591286Y-112339381D01*
X158400809Y-112339381D01*
X158305571Y-112291762D01*
X158257952Y-112244143D01*
X158210333Y-112148905D01*
X158210333Y-111958429D01*
X158257952Y-111863190D01*
X158305571Y-111815571D01*
X158400809Y-111767952D01*
X157003666Y-104465381D02*
X157003666Y-103941571D01*
X157051285Y-103846333D01*
X157146523Y-103798714D01*
X157337000Y-103798714D01*
X157432238Y-103846333D01*
X157003666Y-104417762D02*
X157098904Y-104465381D01*
X157337000Y-104465381D01*
X157432238Y-104417762D01*
X157479857Y-104322524D01*
X157479857Y-104227286D01*
X157432238Y-104132048D01*
X157337000Y-104084429D01*
X157098904Y-104084429D01*
X157003666Y-104036810D01*
X156098904Y-104465381D02*
X156098904Y-103465381D01*
X156098904Y-104417762D02*
X156194142Y-104465381D01*
X156384619Y-104465381D01*
X156479857Y-104417762D01*
X156527476Y-104370143D01*
X156575095Y-104274905D01*
X156575095Y-103989190D01*
X156527476Y-103893952D01*
X156479857Y-103846333D01*
X156384619Y-103798714D01*
X156194142Y-103798714D01*
X156098904Y-103846333D01*
X155194142Y-104417762D02*
X155289380Y-104465381D01*
X155479857Y-104465381D01*
X155575095Y-104417762D01*
X155622714Y-104370143D01*
X155670333Y-104274905D01*
X155670333Y-103989190D01*
X155622714Y-103893952D01*
X155575095Y-103846333D01*
X155479857Y-103798714D01*
X155289380Y-103798714D01*
X155194142Y-103846333D01*
M02*
